<svg width="64" height="64" viewBox="0 0 64 64" fill="none" xmlns="http://www.w3.org/2000/svg">
  <defs>
    <linearGradient id="bg" x1="6" y1="4" x2="58" y2="60" gradientUnits="userSpaceOnUse">
      <stop stop-color="#44D7B6"/>
      <stop offset="0.55" stop-color="#6EA8FE"/>
      <stop offset="1" stop-color="#FF8A5B"/>
    </linearGradient>
    <linearGradient id="ring" x1="14" y1="14" x2="50" y2="50" gradientUnits="userSpaceOnUse">
      <stop stop-color="white" stop-opacity="0.96"/>
      <stop offset="1" stop-color="white" stop-opacity="0.72"/>
    </linearGradient>
  </defs>
  <rect x="2" y="2" width="60" height="60" rx="18" fill="url(#bg)"/>
  <path d="M20 24C20 19.5817 23.5817 16 28 16H36C43.732 16 50 22.268 50 30V32C50 39.732 43.732 46 36 46H28C23.5817 46 20 42.4183 20 38V24Z" fill="rgba(8,17,31,0.18)"/>
  <circle cx="25" cy="25" r="5" fill="white" fill-opacity="0.9"/>
  <path d="M24 38L24 30L31.5 38L31.5 24" stroke="url(#ring)" stroke-width="4.5" stroke-linecap="round" stroke-linejoin="round"/>
  <path d="M37.5 38H43C45.7614 38 48 35.7614 48 33V31.5C48 28.7386 45.7614 26.5 43 26.5H37.5V38Z" stroke="url(#ring)" stroke-width="4.5" stroke-linecap="round" stroke-linejoin="round"/>
  <circle cx="43" cy="21" r="3" fill="white" fill-opacity="0.9"/>
</svg>